<mxfile host="app.diagrams.net" agent="Mozilla/5.0 (Windows NT 10.0; Win64; x64) AppleWebKit/537.36 (KHTML, like Gecko) Chrome/133.0.0.0 Safari/537.36 Edg/133.0.0.0" version="26.1.0">
  <diagram name="Сторінка-1" id="pzkh2ukg2_FNEwU7lu4t">
    <mxGraphModel dx="1889" dy="636" grid="1" gridSize="10" guides="1" tooltips="1" connect="1" arrows="1" fold="1" page="1" pageScale="1" pageWidth="827" pageHeight="1169" math="0" shadow="0">
      <root>
        <mxCell id="0" />
        <mxCell id="1" parent="0" />
        <mxCell id="DHwCt8sXuOZ3ArqHvKpD-6" style="edgeStyle=orthogonalEdgeStyle;rounded=0;orthogonalLoop=1;jettySize=auto;html=1;entryX=1;entryY=0.5;entryDx=0;entryDy=0;endArrow=open;startFill=1;startArrow=diamondThin;endFill=0;endSize=9;" parent="1" source="DHwCt8sXuOZ3ArqHvKpD-2" target="DHwCt8sXuOZ3ArqHvKpD-7" edge="1">
          <mxGeometry relative="1" as="geometry">
            <mxPoint x="268.24" y="256.096" as="targetPoint" />
            <Array as="points">
              <mxPoint x="300" y="257" />
              <mxPoint x="300" y="257" />
            </Array>
          </mxGeometry>
        </mxCell>
        <mxCell id="DHwCt8sXuOZ3ArqHvKpD-16" style="edgeStyle=orthogonalEdgeStyle;rounded=0;orthogonalLoop=1;jettySize=auto;html=1;entryX=0.5;entryY=1;entryDx=0;entryDy=0;labelPosition=left;verticalLabelPosition=top;align=right;verticalAlign=bottom;endArrow=open;endFill=0;endSize=8;" parent="1" source="DHwCt8sXuOZ3ArqHvKpD-2" target="DHwCt8sXuOZ3ArqHvKpD-18" edge="1">
          <mxGeometry relative="1" as="geometry">
            <mxPoint x="440" y="110" as="targetPoint" />
          </mxGeometry>
        </mxCell>
        <mxCell id="DHwCt8sXuOZ3ArqHvKpD-2" value="Field" style="swimlane;fontStyle=1;align=center;verticalAlign=top;childLayout=stackLayout;horizontal=1;startSize=26;horizontalStack=0;resizeParent=1;resizeParentMax=0;resizeLast=0;collapsible=1;marginBottom=0;whiteSpace=wrap;html=1;" parent="1" vertex="1">
          <mxGeometry x="360" y="200" width="320" height="170" as="geometry" />
        </mxCell>
        <mxCell id="DHwCt8sXuOZ3ArqHvKpD-3" value="- countRows: int&lt;div&gt;- countColumns: int&lt;/div&gt;&lt;div&gt;- tiles: Tile [][]&lt;/div&gt;" style="text;strokeColor=none;fillColor=none;align=left;verticalAlign=top;spacingLeft=4;spacingRight=4;overflow=hidden;rotatable=0;points=[[0,0.5],[1,0.5]];portConstraint=eastwest;whiteSpace=wrap;html=1;" parent="DHwCt8sXuOZ3ArqHvKpD-2" vertex="1">
          <mxGeometry y="26" width="320" height="54" as="geometry" />
        </mxCell>
        <mxCell id="DHwCt8sXuOZ3ArqHvKpD-4" value="" style="line;strokeWidth=1;fillColor=none;align=left;verticalAlign=middle;spacingTop=-1;spacingLeft=3;spacingRight=3;rotatable=0;labelPosition=right;points=[];portConstraint=eastwest;strokeColor=inherit;" parent="DHwCt8sXuOZ3ArqHvKpD-2" vertex="1">
          <mxGeometry y="80" width="320" height="8" as="geometry" />
        </mxCell>
        <mxCell id="DHwCt8sXuOZ3ArqHvKpD-5" value="- generateField(): void&lt;br&gt;&lt;span style=&quot;background-color: transparent; color: light-dark(rgb(0, 0, 0), rgb(255, 255, 255));&quot;&gt;+ makeMove(row: int, col: int, val: int): boolean&lt;/span&gt;&lt;div&gt;&lt;div&gt;+ checkWin(): boolean&lt;/div&gt;&lt;div&gt;+ printField()&lt;/div&gt;&lt;/div&gt;" style="text;strokeColor=none;fillColor=none;align=left;verticalAlign=top;spacingLeft=4;spacingRight=4;overflow=hidden;rotatable=0;points=[[0,0.5],[1,0.5]];portConstraint=eastwest;whiteSpace=wrap;html=1;" parent="DHwCt8sXuOZ3ArqHvKpD-2" vertex="1">
          <mxGeometry y="88" width="320" height="82" as="geometry" />
        </mxCell>
        <mxCell id="LbjVMdj8fv7vzHyVbG7H-15" style="edgeStyle=orthogonalEdgeStyle;rounded=0;orthogonalLoop=1;jettySize=auto;html=1;entryX=0.5;entryY=0;entryDx=0;entryDy=0;endArrow=open;endFill=0;endSize=8;exitX=0.5;exitY=0.964;exitDx=0;exitDy=0;exitPerimeter=0;" edge="1" parent="1" source="DHwCt8sXuOZ3ArqHvKpD-14" target="LbjVMdj8fv7vzHyVbG7H-16">
          <mxGeometry relative="1" as="geometry">
            <mxPoint x="160" y="130" as="targetPoint" />
            <Array as="points">
              <mxPoint x="80" y="510" />
              <mxPoint x="80" y="510" />
            </Array>
          </mxGeometry>
        </mxCell>
        <mxCell id="DHwCt8sXuOZ3ArqHvKpD-7" value="&lt;div&gt;&lt;span style=&quot;background-color: transparent; color: light-dark(rgb(0, 0, 0), rgb(255, 255, 255));&quot;&gt;Tile&lt;/span&gt;&lt;/div&gt;" style="swimlane;fontStyle=1;align=center;verticalAlign=top;childLayout=stackLayout;horizontal=1;startSize=26;horizontalStack=0;resizeParent=1;resizeParentMax=0;resizeLast=0;collapsible=1;marginBottom=0;whiteSpace=wrap;html=1;" parent="1" vertex="1">
          <mxGeometry x="120" y="238" width="160" height="38" as="geometry" />
        </mxCell>
        <mxCell id="DHwCt8sXuOZ3ArqHvKpD-12" value="ValueTile" style="swimlane;fontStyle=1;align=center;verticalAlign=top;childLayout=stackLayout;horizontal=1;startSize=26;horizontalStack=0;resizeParent=1;resizeParentMax=0;resizeLast=0;collapsible=1;marginBottom=0;whiteSpace=wrap;html=1;" parent="1" vertex="1">
          <mxGeometry y="380" width="160" height="68" as="geometry" />
        </mxCell>
        <mxCell id="LbjVMdj8fv7vzHyVbG7H-6" value="- value: int | null&lt;div&gt;- correctValue: int&lt;/div&gt;" style="text;strokeColor=none;fillColor=none;align=left;verticalAlign=top;spacingLeft=4;spacingRight=4;overflow=hidden;rotatable=0;points=[[0,0.5],[1,0.5]];portConstraint=eastwest;whiteSpace=wrap;html=1;" vertex="1" parent="DHwCt8sXuOZ3ArqHvKpD-12">
          <mxGeometry y="26" width="160" height="34" as="geometry" />
        </mxCell>
        <mxCell id="DHwCt8sXuOZ3ArqHvKpD-14" value="" style="line;strokeWidth=1;fillColor=none;align=left;verticalAlign=middle;spacingTop=-1;spacingLeft=3;spacingRight=3;rotatable=0;labelPosition=right;points=[];portConstraint=eastwest;strokeColor=inherit;" parent="DHwCt8sXuOZ3ArqHvKpD-12" vertex="1">
          <mxGeometry y="60" width="160" height="8" as="geometry" />
        </mxCell>
        <mxCell id="DHwCt8sXuOZ3ArqHvKpD-18" value="&amp;lt;&amp;lt;enumeration&amp;gt;&amp;gt;&lt;br&gt;GameState" style="swimlane;fontStyle=0;childLayout=stackLayout;horizontal=1;startSize=26;fillColor=none;horizontalStack=0;resizeParent=1;resizeParentMax=0;resizeLast=0;collapsible=1;marginBottom=0;whiteSpace=wrap;html=1;" parent="1" vertex="1">
          <mxGeometry x="430" y="10" width="140" height="78" as="geometry" />
        </mxCell>
        <mxCell id="DHwCt8sXuOZ3ArqHvKpD-19" value="+PLAYING" style="text;strokeColor=none;fillColor=none;align=left;verticalAlign=top;spacingLeft=4;spacingRight=4;overflow=hidden;rotatable=0;points=[[0,0.5],[1,0.5]];portConstraint=eastwest;whiteSpace=wrap;html=1;" parent="DHwCt8sXuOZ3ArqHvKpD-18" vertex="1">
          <mxGeometry y="26" width="140" height="26" as="geometry" />
        </mxCell>
        <mxCell id="DHwCt8sXuOZ3ArqHvKpD-20" value="+FINISHED" style="text;strokeColor=none;fillColor=none;align=left;verticalAlign=top;spacingLeft=4;spacingRight=4;overflow=hidden;rotatable=0;points=[[0,0.5],[1,0.5]];portConstraint=eastwest;whiteSpace=wrap;html=1;" parent="DHwCt8sXuOZ3ArqHvKpD-18" vertex="1">
          <mxGeometry y="52" width="140" height="26" as="geometry" />
        </mxCell>
        <mxCell id="Is_UxCp4p5Ot7zPPTPaG-2" style="edgeStyle=orthogonalEdgeStyle;rounded=0;orthogonalLoop=1;jettySize=auto;html=1;endArrow=block;endFill=0;exitX=0.5;exitY=0;exitDx=0;exitDy=0;" parent="1" edge="1" source="LbjVMdj8fv7vzHyVbG7H-2">
          <mxGeometry relative="1" as="geometry">
            <mxPoint x="210" y="280" as="targetPoint" />
            <mxPoint x="290.0046511627907" y="382" as="sourcePoint" />
            <Array as="points">
              <mxPoint x="290" y="330" />
              <mxPoint x="210" y="330" />
            </Array>
          </mxGeometry>
        </mxCell>
        <mxCell id="lFwmgU3Z7Fcc4KV98juT-6" value="ConsoleUI" style="swimlane;fontStyle=1;align=center;verticalAlign=top;childLayout=stackLayout;horizontal=1;startSize=26;horizontalStack=0;resizeParent=1;resizeParentMax=0;resizeLast=0;collapsible=1;marginBottom=0;whiteSpace=wrap;html=1;" parent="1" vertex="1">
          <mxGeometry x="810" y="197" width="160" height="120" as="geometry" />
        </mxCell>
        <mxCell id="lFwmgU3Z7Fcc4KV98juT-8" value="" style="line;strokeWidth=1;fillColor=none;align=left;verticalAlign=middle;spacingTop=-1;spacingLeft=3;spacingRight=3;rotatable=0;labelPosition=right;points=[];portConstraint=eastwest;strokeColor=inherit;" parent="lFwmgU3Z7Fcc4KV98juT-6" vertex="1">
          <mxGeometry y="26" width="160" height="8" as="geometry" />
        </mxCell>
        <mxCell id="lFwmgU3Z7Fcc4KV98juT-9" value="+ play(field: Field)&lt;div&gt;&lt;span style=&quot;background-color: transparent; color: light-dark(rgb(0, 0, 0), rgb(255, 255, 255));&quot;&gt;- readLine(): String&lt;/span&gt;&lt;/div&gt;&lt;div&gt;- handleInput()&lt;/div&gt;&lt;div&gt;&lt;br&gt;&lt;/div&gt;" style="text;strokeColor=none;fillColor=none;align=left;verticalAlign=top;spacingLeft=4;spacingRight=4;overflow=hidden;rotatable=0;points=[[0,0.5],[1,0.5]];portConstraint=eastwest;whiteSpace=wrap;html=1;" parent="lFwmgU3Z7Fcc4KV98juT-6" vertex="1">
          <mxGeometry y="34" width="160" height="86" as="geometry" />
        </mxCell>
        <mxCell id="lFwmgU3Z7Fcc4KV98juT-10" style="edgeStyle=orthogonalEdgeStyle;rounded=0;orthogonalLoop=1;jettySize=auto;html=1;endArrow=open;endFill=0;endSize=12;entryX=1.004;entryY=0.574;entryDx=0;entryDy=0;entryPerimeter=0;" parent="1" source="lFwmgU3Z7Fcc4KV98juT-6" target="DHwCt8sXuOZ3ArqHvKpD-3" edge="1">
          <mxGeometry relative="1" as="geometry">
            <mxPoint x="540" y="257" as="targetPoint" />
          </mxGeometry>
        </mxCell>
        <mxCell id="lFwmgU3Z7Fcc4KV98juT-16" style="edgeStyle=orthogonalEdgeStyle;rounded=0;orthogonalLoop=1;jettySize=auto;html=1;entryX=0.5;entryY=0;entryDx=0;entryDy=0;endArrow=open;endFill=0;endSize=12;" parent="1" source="lFwmgU3Z7Fcc4KV98juT-12" target="lFwmgU3Z7Fcc4KV98juT-6" edge="1">
          <mxGeometry relative="1" as="geometry" />
        </mxCell>
        <mxCell id="lFwmgU3Z7Fcc4KV98juT-12" value="Kakuro" style="swimlane;fontStyle=1;align=center;verticalAlign=top;childLayout=stackLayout;horizontal=1;startSize=26;horizontalStack=0;resizeParent=1;resizeParentMax=0;resizeLast=0;collapsible=1;marginBottom=0;whiteSpace=wrap;html=1;" parent="1" vertex="1">
          <mxGeometry x="860" y="50" width="160" height="60" as="geometry" />
        </mxCell>
        <mxCell id="lFwmgU3Z7Fcc4KV98juT-14" value="" style="line;strokeWidth=1;fillColor=none;align=left;verticalAlign=middle;spacingTop=-1;spacingLeft=3;spacingRight=3;rotatable=0;labelPosition=right;points=[];portConstraint=eastwest;strokeColor=inherit;" parent="lFwmgU3Z7Fcc4KV98juT-12" vertex="1">
          <mxGeometry y="26" width="160" height="8" as="geometry" />
        </mxCell>
        <mxCell id="lFwmgU3Z7Fcc4KV98juT-15" value="+ main(args: String)" style="text;strokeColor=none;fillColor=none;align=left;verticalAlign=top;spacingLeft=4;spacingRight=4;overflow=hidden;rotatable=0;points=[[0,0.5],[1,0.5]];portConstraint=eastwest;whiteSpace=wrap;html=1;" parent="lFwmgU3Z7Fcc4KV98juT-12" vertex="1">
          <mxGeometry y="34" width="160" height="26" as="geometry" />
        </mxCell>
        <mxCell id="Is_UxCp4p5Ot7zPPTPaG-1" style="edgeStyle=orthogonalEdgeStyle;rounded=0;orthogonalLoop=1;jettySize=auto;html=1;endArrow=block;endFill=0;" parent="1" source="DHwCt8sXuOZ3ArqHvKpD-12" edge="1">
          <mxGeometry relative="1" as="geometry">
            <Array as="points">
              <mxPoint x="80" y="330" />
              <mxPoint x="190" y="330" />
              <mxPoint x="190" y="280" />
            </Array>
            <mxPoint x="190" y="280" as="targetPoint" />
          </mxGeometry>
        </mxCell>
        <mxCell id="LbjVMdj8fv7vzHyVbG7H-2" value="Sum&lt;span style=&quot;background-color: transparent; color: light-dark(rgb(0, 0, 0), rgb(255, 255, 255));&quot;&gt;Tile&lt;/span&gt;" style="swimlane;fontStyle=1;align=center;verticalAlign=top;childLayout=stackLayout;horizontal=1;startSize=26;horizontalStack=0;resizeParent=1;resizeParentMax=0;resizeLast=0;collapsible=1;marginBottom=0;whiteSpace=wrap;html=1;" vertex="1" parent="1">
          <mxGeometry x="210" y="390" width="190" height="128" as="geometry" />
        </mxCell>
        <mxCell id="DHwCt8sXuOZ3ArqHvKpD-13" value="- rowSum: int&lt;div&gt;- colSum: int&lt;/div&gt;&lt;div&gt;- rowTiles: List&amp;lt;ValueTile&amp;gt;&lt;/div&gt;&lt;div&gt;- colTiles: List&amp;lt;ValueTile&amp;gt;&lt;/div&gt;&lt;div&gt;- correctRow: List&amp;lt;int&amp;gt;&lt;br&gt;- correctCol: List&amp;lt;int&amp;gt;&lt;/div&gt;&lt;div&gt;&lt;br&gt;&lt;/div&gt;&lt;div&gt;&lt;br&gt;&lt;/div&gt;" style="text;strokeColor=none;fillColor=none;align=left;verticalAlign=top;spacingLeft=4;spacingRight=4;overflow=hidden;rotatable=0;points=[[0,0.5],[1,0.5]];portConstraint=eastwest;whiteSpace=wrap;html=1;" parent="LbjVMdj8fv7vzHyVbG7H-2" vertex="1">
          <mxGeometry y="26" width="190" height="94" as="geometry" />
        </mxCell>
        <mxCell id="LbjVMdj8fv7vzHyVbG7H-4" value="" style="line;strokeWidth=1;fillColor=none;align=left;verticalAlign=middle;spacingTop=-1;spacingLeft=3;spacingRight=3;rotatable=0;labelPosition=right;points=[];portConstraint=eastwest;strokeColor=inherit;" vertex="1" parent="LbjVMdj8fv7vzHyVbG7H-2">
          <mxGeometry y="120" width="190" height="8" as="geometry" />
        </mxCell>
        <mxCell id="LbjVMdj8fv7vzHyVbG7H-7" value="-state" style="text;html=1;align=center;verticalAlign=middle;resizable=0;points=[];autosize=1;strokeColor=none;fillColor=none;fontSize=10;" vertex="1" parent="1">
          <mxGeometry x="455" y="88" width="50" height="30" as="geometry" />
        </mxCell>
        <mxCell id="LbjVMdj8fv7vzHyVbG7H-8" value="&lt;font&gt;1&lt;/font&gt;" style="text;html=1;align=center;verticalAlign=middle;resizable=0;points=[];autosize=1;strokeColor=none;fillColor=none;fontSize=10;" vertex="1" parent="1">
          <mxGeometry x="495" y="88" width="30" height="30" as="geometry" />
        </mxCell>
        <mxCell id="LbjVMdj8fv7vzHyVbG7H-9" value="&lt;font style=&quot;font-size: 10px;&quot;&gt;-userinterface&lt;/font&gt;" style="text;html=1;align=center;verticalAlign=middle;resizable=0;points=[];autosize=1;strokeColor=none;fillColor=none;" vertex="1" parent="1">
          <mxGeometry x="890" y="167" width="80" height="30" as="geometry" />
        </mxCell>
        <mxCell id="LbjVMdj8fv7vzHyVbG7H-10" value="1" style="text;html=1;align=center;verticalAlign=middle;resizable=0;points=[];autosize=1;strokeColor=none;fillColor=none;fontSize=10;" vertex="1" parent="1">
          <mxGeometry x="860" y="167" width="30" height="30" as="geometry" />
        </mxCell>
        <mxCell id="LbjVMdj8fv7vzHyVbG7H-11" value="&lt;font style=&quot;font-size: 10px;&quot;&gt;-field&lt;/font&gt;" style="text;html=1;align=center;verticalAlign=middle;resizable=0;points=[];autosize=1;strokeColor=none;fillColor=none;" vertex="1" parent="1">
          <mxGeometry x="675" y="258" width="50" height="30" as="geometry" />
        </mxCell>
        <mxCell id="LbjVMdj8fv7vzHyVbG7H-12" value="1" style="text;html=1;align=center;verticalAlign=middle;resizable=0;points=[];autosize=1;strokeColor=none;fillColor=none;fontSize=10;" vertex="1" parent="1">
          <mxGeometry x="685" y="228" width="30" height="30" as="geometry" />
        </mxCell>
        <mxCell id="LbjVMdj8fv7vzHyVbG7H-13" value="-tile" style="text;html=1;align=center;verticalAlign=middle;resizable=0;points=[];autosize=1;strokeColor=none;fillColor=none;" vertex="1" parent="1">
          <mxGeometry x="270" y="258" width="40" height="30" as="geometry" />
        </mxCell>
        <mxCell id="LbjVMdj8fv7vzHyVbG7H-14" value="0...*" style="text;html=1;align=center;verticalAlign=middle;resizable=0;points=[];autosize=1;strokeColor=none;fillColor=none;" vertex="1" parent="1">
          <mxGeometry x="280" y="228" width="40" height="30" as="geometry" />
        </mxCell>
        <mxCell id="LbjVMdj8fv7vzHyVbG7H-16" value="&amp;lt;&amp;lt;enumeration&amp;gt;&amp;gt;&lt;br&gt;TileState" style="swimlane;fontStyle=0;childLayout=stackLayout;horizontal=1;startSize=26;fillColor=none;horizontalStack=0;resizeParent=1;resizeParentMax=0;resizeLast=0;collapsible=1;marginBottom=0;whiteSpace=wrap;html=1;" vertex="1" parent="1">
          <mxGeometry x="10" y="532" width="140" height="78" as="geometry" />
        </mxCell>
        <mxCell id="LbjVMdj8fv7vzHyVbG7H-17" value="+ VALUED" style="text;strokeColor=none;fillColor=none;align=left;verticalAlign=top;spacingLeft=4;spacingRight=4;overflow=hidden;rotatable=0;points=[[0,0.5],[1,0.5]];portConstraint=eastwest;whiteSpace=wrap;html=1;" vertex="1" parent="LbjVMdj8fv7vzHyVbG7H-16">
          <mxGeometry y="26" width="140" height="26" as="geometry" />
        </mxCell>
        <mxCell id="LbjVMdj8fv7vzHyVbG7H-18" value="+ UNVALUED" style="text;strokeColor=none;fillColor=none;align=left;verticalAlign=top;spacingLeft=4;spacingRight=4;overflow=hidden;rotatable=0;points=[[0,0.5],[1,0.5]];portConstraint=eastwest;whiteSpace=wrap;html=1;" vertex="1" parent="LbjVMdj8fv7vzHyVbG7H-16">
          <mxGeometry y="52" width="140" height="26" as="geometry" />
        </mxCell>
        <mxCell id="LbjVMdj8fv7vzHyVbG7H-20" value="&lt;font style=&quot;font-size: 10px;&quot;&gt;1&lt;/font&gt;" style="text;html=1;align=center;verticalAlign=middle;resizable=0;points=[];autosize=1;strokeColor=none;fillColor=none;" vertex="1" parent="1">
          <mxGeometry x="80" y="502" width="30" height="30" as="geometry" />
        </mxCell>
        <mxCell id="LbjVMdj8fv7vzHyVbG7H-21" value="" style="ellipse;html=1;shape=startState;fillColor=#000000;strokeColor=#000000;" vertex="1" parent="1">
          <mxGeometry x="65" y="650" width="30" height="30" as="geometry" />
        </mxCell>
        <mxCell id="LbjVMdj8fv7vzHyVbG7H-22" value="" style="edgeStyle=orthogonalEdgeStyle;html=1;verticalAlign=bottom;endArrow=open;endSize=8;strokeColor=#000000;rounded=0;entryX=0.5;entryY=0;entryDx=0;entryDy=0;" edge="1" source="LbjVMdj8fv7vzHyVbG7H-21" parent="1" target="LbjVMdj8fv7vzHyVbG7H-23">
          <mxGeometry relative="1" as="geometry">
            <mxPoint x="80" y="780" as="targetPoint" />
          </mxGeometry>
        </mxCell>
        <mxCell id="LbjVMdj8fv7vzHyVbG7H-29" style="edgeStyle=orthogonalEdgeStyle;rounded=0;orthogonalLoop=1;jettySize=auto;html=1;entryX=0.5;entryY=0;entryDx=0;entryDy=0;endArrow=open;endFill=0;" edge="1" parent="1" source="LbjVMdj8fv7vzHyVbG7H-23" target="LbjVMdj8fv7vzHyVbG7H-28">
          <mxGeometry relative="1" as="geometry" />
        </mxCell>
        <mxCell id="LbjVMdj8fv7vzHyVbG7H-23" value="&lt;font style=&quot;font-size: 10px;&quot;&gt;UNVALUED&lt;/font&gt;" style="rounded=1;whiteSpace=wrap;html=1;arcSize=40;fontColor=#000000;fillColor=#ffffc0;strokeColor=light-dark(#000000, #ff9090);" vertex="1" parent="1">
          <mxGeometry x="27.5" y="738" width="105" height="30" as="geometry" />
        </mxCell>
        <mxCell id="LbjVMdj8fv7vzHyVbG7H-31" style="edgeStyle=orthogonalEdgeStyle;rounded=0;orthogonalLoop=1;jettySize=auto;html=1;entryX=0.5;entryY=0;entryDx=0;entryDy=0;" edge="1" parent="1" source="LbjVMdj8fv7vzHyVbG7H-28" target="LbjVMdj8fv7vzHyVbG7H-30">
          <mxGeometry relative="1" as="geometry" />
        </mxCell>
        <mxCell id="LbjVMdj8fv7vzHyVbG7H-32" style="edgeStyle=orthogonalEdgeStyle;rounded=0;orthogonalLoop=1;jettySize=auto;html=1;entryX=1;entryY=0.25;entryDx=0;entryDy=0;elbow=vertical;curved=1;exitX=0.838;exitY=0.001;exitDx=0;exitDy=0;exitPerimeter=0;endArrow=open;endFill=0;" edge="1" parent="1" source="LbjVMdj8fv7vzHyVbG7H-28" target="LbjVMdj8fv7vzHyVbG7H-28">
          <mxGeometry relative="1" as="geometry">
            <mxPoint x="180" y="815" as="targetPoint" />
            <Array as="points">
              <mxPoint x="116" y="780" />
              <mxPoint x="140" y="780" />
              <mxPoint x="140" y="807" />
            </Array>
          </mxGeometry>
        </mxCell>
        <mxCell id="LbjVMdj8fv7vzHyVbG7H-28" value="&lt;font style=&quot;font-size: 10px;&quot;&gt;VALUE&lt;/font&gt;" style="rounded=1;whiteSpace=wrap;html=1;arcSize=40;fontColor=#000000;fillColor=#ffffc0;strokeColor=light-dark(#000000, #ff9090);" vertex="1" parent="1">
          <mxGeometry x="27.5" y="800" width="105" height="30" as="geometry" />
        </mxCell>
        <mxCell id="LbjVMdj8fv7vzHyVbG7H-19" value="-&lt;font style=&quot;font-size: 10px;&quot;&gt;state&lt;/font&gt;" style="text;html=1;align=center;verticalAlign=middle;resizable=0;points=[];autosize=1;strokeColor=none;fillColor=none;" vertex="1" parent="1">
          <mxGeometry x="-20" y="500" width="160" height="30" as="geometry" />
        </mxCell>
        <mxCell id="LbjVMdj8fv7vzHyVbG7H-30" value="" style="ellipse;html=1;shape=endState;fillColor=#000000;strokeColor=light-dark(#000000, #ff9090);" vertex="1" parent="1">
          <mxGeometry x="65" y="860" width="30" height="30" as="geometry" />
        </mxCell>
        <mxCell id="LbjVMdj8fv7vzHyVbG7H-33" value="&lt;font style=&quot;font-size: 9px;&quot;&gt;setValue&lt;/font&gt;" style="text;html=1;align=center;verticalAlign=middle;resizable=0;points=[];autosize=1;strokeColor=none;fillColor=none;" vertex="1" parent="1">
          <mxGeometry x="27.5" y="768" width="60" height="30" as="geometry" />
        </mxCell>
        <mxCell id="LbjVMdj8fv7vzHyVbG7H-34" value="&lt;span style=&quot;color: rgb(0, 0, 0); font-family: Helvetica; font-size: 9px; font-style: normal; font-variant-ligatures: normal; font-variant-caps: normal; font-weight: 400; letter-spacing: normal; orphans: 2; text-align: center; text-indent: 0px; text-transform: none; widows: 2; word-spacing: 0px; -webkit-text-stroke-width: 0px; white-space: nowrap; background-color: rgb(251, 251, 251); text-decoration-thickness: initial; text-decoration-style: initial; text-decoration-color: initial; display: inline !important; float: none;&quot;&gt;setValue&lt;/span&gt;" style="text;whiteSpace=wrap;html=1;" vertex="1" parent="1">
          <mxGeometry x="150" y="768" width="70" height="40" as="geometry" />
        </mxCell>
        <mxCell id="LbjVMdj8fv7vzHyVbG7H-35" value="" style="ellipse;html=1;shape=startState;fillColor=#000000;strokeColor=#000000;" vertex="1" parent="1">
          <mxGeometry x="357.5" y="640" width="30" height="30" as="geometry" />
        </mxCell>
        <mxCell id="LbjVMdj8fv7vzHyVbG7H-36" value="" style="edgeStyle=orthogonalEdgeStyle;html=1;verticalAlign=bottom;endArrow=open;endSize=8;strokeColor=#000000;rounded=0;entryX=0.5;entryY=0;entryDx=0;entryDy=0;" edge="1" parent="1" source="LbjVMdj8fv7vzHyVbG7H-35" target="LbjVMdj8fv7vzHyVbG7H-37">
          <mxGeometry relative="1" as="geometry">
            <mxPoint x="375" y="728" as="targetPoint" />
          </mxGeometry>
        </mxCell>
        <mxCell id="LbjVMdj8fv7vzHyVbG7H-38" style="edgeStyle=orthogonalEdgeStyle;rounded=0;orthogonalLoop=1;jettySize=auto;html=1;" edge="1" parent="1" source="LbjVMdj8fv7vzHyVbG7H-37" target="LbjVMdj8fv7vzHyVbG7H-39">
          <mxGeometry relative="1" as="geometry">
            <mxPoint x="372.5" y="780" as="targetPoint" />
          </mxGeometry>
        </mxCell>
        <mxCell id="LbjVMdj8fv7vzHyVbG7H-37" value="&lt;font style=&quot;font-size: 10px;&quot;&gt;PLAYING&lt;/font&gt;" style="rounded=1;whiteSpace=wrap;html=1;arcSize=40;fontColor=#000000;fillColor=#ffffc0;strokeColor=light-dark(#000000, #ff9090);" vertex="1" parent="1">
          <mxGeometry x="320" y="710" width="105" height="40" as="geometry" />
        </mxCell>
        <mxCell id="LbjVMdj8fv7vzHyVbG7H-40" style="edgeStyle=orthogonalEdgeStyle;rounded=0;orthogonalLoop=1;jettySize=auto;html=1;entryX=0.5;entryY=0;entryDx=0;entryDy=0;" edge="1" parent="1" source="LbjVMdj8fv7vzHyVbG7H-39" target="LbjVMdj8fv7vzHyVbG7H-41">
          <mxGeometry relative="1" as="geometry">
            <mxPoint x="372.5" y="860" as="targetPoint" />
          </mxGeometry>
        </mxCell>
        <mxCell id="LbjVMdj8fv7vzHyVbG7H-39" value="&lt;font style=&quot;font-size: 10px;&quot;&gt;SOLVED&lt;/font&gt;" style="rounded=1;whiteSpace=wrap;html=1;arcSize=40;fontColor=#000000;fillColor=#ffffc0;strokeColor=light-dark(#000000, #ff9090);" vertex="1" parent="1">
          <mxGeometry x="320" y="780" width="105" height="40" as="geometry" />
        </mxCell>
        <mxCell id="LbjVMdj8fv7vzHyVbG7H-41" value="" style="ellipse;html=1;shape=endState;fillColor=#000000;strokeColor=light-dark(#000000, #ff9090);" vertex="1" parent="1">
          <mxGeometry x="357.5" y="850" width="30" height="30" as="geometry" />
        </mxCell>
        <mxCell id="LbjVMdj8fv7vzHyVbG7H-42" style="edgeStyle=orthogonalEdgeStyle;rounded=0;orthogonalLoop=1;jettySize=auto;html=1;entryX=1;entryY=0.25;entryDx=0;entryDy=0;elbow=vertical;curved=1;exitX=0.81;exitY=0;exitDx=0;exitDy=0;exitPerimeter=0;endArrow=open;endFill=0;" edge="1" parent="1" source="LbjVMdj8fv7vzHyVbG7H-37" target="LbjVMdj8fv7vzHyVbG7H-37">
          <mxGeometry relative="1" as="geometry">
            <mxPoint x="423" y="710" as="targetPoint" />
            <mxPoint x="405" y="702" as="sourcePoint" />
            <Array as="points">
              <mxPoint x="405" y="690" />
              <mxPoint x="430" y="690" />
              <mxPoint x="430" y="720" />
            </Array>
          </mxGeometry>
        </mxCell>
        <mxCell id="LbjVMdj8fv7vzHyVbG7H-43" value="&lt;font size=&quot;1&quot;&gt;makeMove&lt;/font&gt;" style="text;html=1;align=center;verticalAlign=middle;resizable=0;points=[];autosize=1;strokeColor=none;fillColor=none;" vertex="1" parent="1">
          <mxGeometry x="395" y="668" width="70" height="30" as="geometry" />
        </mxCell>
      </root>
    </mxGraphModel>
  </diagram>
</mxfile>
